# Blender v2.78 (sub 0) OBJ File: ''
# www.blender.org
mtllib ak_pull_low.mtl
o Cube.018_Cube.024
v -0.401837 0.371679 0.098276
v -0.401837 0.478802 0.098276
v -0.401837 0.371679 0.010226
v -0.401837 0.478802 0.010226
v 0.457345 0.371679 0.098276
v 0.457345 0.478802 0.098276
v 0.457345 0.371679 0.010226
v 0.457345 0.478802 0.010226
v -0.384063 0.523098 0.088521
v -0.384063 0.523098 0.010226
v 0.457345 0.523098 0.088521
v 0.457345 0.523098 0.010226
v -0.384063 0.590232 0.077185
v -0.384063 0.590232 0.010226
v 0.457345 0.590232 0.077185
v 0.457345 0.590232 0.010226
v 0.351943 0.452363 0.068191
v 0.427186 0.454354 0.101180
v 0.359421 0.375643 0.163000
v 0.433798 0.478928 0.207698
v 0.431419 0.467529 0.159450
v 0.361799 0.363281 0.211248
v 0.361799 0.478928 0.211248
v 0.359421 0.467529 0.163000
v 0.351943 0.392091 0.068191
v 0.427186 0.389932 0.101180
v 0.433798 0.363281 0.207698
v 0.431419 0.375643 0.159450
v 0.424025 0.392091 0.067999
v 0.355148 0.389932 0.103146
v 0.424025 0.452363 0.067999
v 0.355148 0.454354 0.103146
v 0.364153 0.387555 0.102901
v 0.357646 0.458536 0.133703
v 0.360953 0.456420 0.068167
v 0.360695 0.392266 0.065363
v 0.414758 0.392266 0.065316
v 0.415015 0.389867 0.068023
v 0.418181 0.458691 0.101426
v 0.429654 0.385396 0.130549
v 0.360722 0.476078 0.189395
v 0.432721 0.366372 0.185846
v 0.368421 0.372252 0.162556
v 0.368421 0.473715 0.162556
v 0.422420 0.372252 0.159894
v 0.422420 0.473715 0.159894
v 0.371523 0.478928 0.225490
v 0.425522 0.363281 0.222828
v 0.424798 0.486713 0.208142
v 0.424798 0.359014 0.208142
v 0.370799 0.359014 0.210804
v 0.370799 0.486713 0.210804
v 0.360695 0.452202 0.065363
v 0.414758 0.452202 0.065316
v 0.429654 0.458536 0.130549
v 0.432721 0.476078 0.185846
v 0.425522 0.478928 0.222828
v 0.357646 0.385396 0.133703
v 0.360722 0.366372 0.189395
v 0.371523 0.363281 0.225490
v 0.360953 0.389867 0.068167
v 0.364153 0.458691 0.102901
v 0.418181 0.387555 0.101426
v 0.415015 0.456420 0.068023
v 0.424985 0.391435 0.078084
v 0.352917 0.391435 0.078814
v 0.424985 0.452968 0.078084
v 0.352917 0.452968 0.078814
v 0.366647 0.382697 0.133309
v 0.366647 0.463460 0.133309
v 0.367770 0.390578 0.066086
v 0.367770 0.455240 0.066086
v 0.420653 0.382697 0.130944
v 0.420653 0.463460 0.130944
v 0.407816 0.390578 0.066022
v 0.407816 0.455240 0.066022
v 0.369722 0.362323 0.188951
v 0.369722 0.483463 0.188951
v 0.423721 0.483463 0.186289
v 0.423721 0.362323 0.186289
v 0.378335 0.360120 0.221337
v 0.378335 0.484694 0.221337
v 0.418335 0.484694 0.219365
v 0.418335 0.360120 0.219365
v 0.361926 0.389164 0.078723
v 0.361926 0.457110 0.078723
v 0.415977 0.389164 0.078175
v 0.415977 0.457110 0.078175
vt 0.8790 0.1319
vt 0.7652 0.1319
vt 0.7652 0.0000
vt 0.8790 0.0000
vt 0.3706 0.9792
vt 0.3706 0.0000
vt 0.4279 0.0000
vt 0.4279 0.9999
vt 0.8790 0.1864
vt 0.8790 0.2691
vt 0.7924 0.2691
vt 0.7778 0.1864
vt 0.7652 0.9792
vt 0.6794 0.9793
vt 0.6794 0.0000
vt 0.7652 0.0000
vt 0.0878 0.0208
vt 0.0878 0.9999
vt 0.0000 1.0000
vt 0.0000 0.0208
vt 0.5663 0.9999
vt 0.5663 0.0000
vt 0.8785 0.4009
vt 0.7652 0.4013
vt 0.7652 0.2695
vt 0.8785 0.2691
vt 0.6794 0.0000
vt 0.6794 1.0000
vt 0.2839 0.9792
vt 0.2839 0.0000
vt 0.1460 0.0000
vt 0.2839 0.0002
vt 0.2839 1.0000
vt 0.1460 0.9998
vt 0.8680 0.4562
vt 0.7673 0.4565
vt 0.8534 0.5389
vt 0.7673 0.5391
vt 0.9686 0.0009
vt 0.9683 0.0140
vt 0.9573 0.0153
vt 0.9576 0.0022
vt 0.9202 0.6230
vt 0.9150 0.6125
vt 0.9164 0.6046
vt 0.9203 0.6128
vt 0.8908 0.4500
vt 0.8900 0.4212
vt 0.9560 0.4235
vt 0.9567 0.4534
vt 0.8796 0.0470
vt 0.8803 0.0185
vt 0.8913 0.0186
vt 0.8906 0.0474
vt 0.8900 0.0843
vt 0.8790 0.0836
vt 0.9109 0.6887
vt 0.7692 0.6887
vt 0.7802 0.6562
vt 0.8989 0.6562
vt 0.9669 0.3488
vt 0.9666 0.3861
vt 0.9556 0.3855
vt 0.9559 0.3482
vt 0.9565 0.3145
vt 0.9675 0.3152
vt 0.7971 0.5823
vt 0.8803 0.5823
vt 0.8862 0.6201
vt 0.7917 0.6201
vt 0.8895 0.3843
vt 0.9566 0.0451
vt 0.9561 0.0831
vt 0.8898 0.3474
vt 0.8805 0.1813
vt 0.8800 0.1541
vt 0.8910 0.1552
vt 0.8915 0.1824
vt 0.9003 0.1953
vt 0.8918 0.1991
vt 0.8905 0.3137
vt 0.9564 0.1206
vt 0.8904 0.1214
vt 0.9571 0.1544
vt 0.9720 0.8836
vt 0.9231 0.8834
vt 0.9147 0.8758
vt 0.9807 0.8761
vt 0.8793 0.1205
vt 0.8910 0.2865
vt 0.9570 0.2873
vt 0.9487 0.2740
vt 0.8998 0.2734
vt 0.9576 0.1816
vt 0.9146 0.7341
vt 0.7652 0.7341
vt 0.7655 0.7156
vt 0.9150 0.7156
vt 0.9680 0.2880
vt 0.9574 0.2699
vt 0.9493 0.1947
vt 0.9203 0.5499
vt 0.9978 0.5499
vt 0.9978 0.6128
vt 0.9686 0.1802
vt 0.9680 0.1531
vt 0.9579 0.1983
vt 0.9674 0.1194
vt 0.9671 0.0821
vt 0.9680 0.4674
vt 0.9571 0.4664
vt 0.9677 0.4543
vt 0.9981 0.6230
vt 1.0000 0.5580
vt 1.0000 0.6046
vt 0.9571 0.4702
vt 0.9486 0.4686
vt 0.9147 0.7341
vt 0.9807 0.7343
vt 0.8783 0.9123
vt 0.7987 0.9123
vt 0.7970 0.8839
vt 0.8802 0.8839
vt 0.8790 0.4212
vt 0.8798 0.4498
vt 0.7915 0.8477
vt 0.8861 0.8477
vt 0.7689 0.7797
vt 0.7652 0.7528
vt 0.9147 0.7528
vt 0.9107 0.7797
vt 0.8785 0.3845
vt 0.8799 0.2869
vt 0.8794 0.3141
vt 0.7652 0.7341
vt 0.9147 0.7341
vt 0.7799 0.8122
vt 0.8987 0.8122
vt 0.8913 0.2691
vt 0.8788 0.3478
vt 0.9491 0.0000
vt 0.8917 0.0061
vt 0.9003 0.0029
vt 0.8801 0.4622
vt 0.8911 0.4626
vt 0.8997 0.4657
vt 0.8912 0.4662
vt 0.7995 0.9247
vt 0.8774 0.9247
vt 0.9164 0.5580
vt 0.9670 0.4242
vt 0.7989 0.5523
vt 0.8784 0.5523
vt 0.9202 0.5391
vt 0.9981 0.5391
vt 0.7997 0.5391
vt 0.8775 0.5391
vt 0.9150 0.5496
vt 0.8807 0.0061
vt 0.9676 0.0440
vn 0.7071 0.0000 -0.7071
vn 0.6835 0.0790 0.7256
vn 0.5773 -0.5773 0.5773
vn 0.5773 -0.5773 -0.5773
vn -0.6467 0.1249 -0.7524
vn -0.7317 0.1413 -0.6668
vn 0.5773 0.5773 -0.5773
vn 0.5867 0.6185 0.5228
vn 0.7127 0.1339 0.6885
vn -0.5773 0.5773 -0.5773
vn -0.5867 0.6185 0.5228
vn -0.6360 0.2795 0.7193
vn -0.5773 -0.5773 -0.5773
vn -0.7066 0.1908 0.6814
vn -0.5773 -0.5773 0.5773
vn -0.7588 0.4387 -0.4814
vn -0.8410 0.5391 0.0442
vn -0.2158 0.9755 -0.0426
vn -0.2269 0.8729 -0.4319
vn -0.0259 0.5965 -0.8021
vn -0.1747 0.2571 -0.9504
vn 0.1224 -0.9893 -0.0784
vn 0.1275 -0.9840 -0.1239
vn -0.1343 -0.9860 -0.0989
vn -0.1246 -0.9907 -0.0540
vn 0.8482 0.5131 -0.1310
vn 0.8369 0.5353 -0.1139
vn 0.2130 0.9734 -0.0839
vn 0.2233 0.9664 -0.1273
vn 0.2426 0.9369 -0.2516
vn 0.8634 0.4739 -0.1728
vn -0.8236 -0.5575 -0.1044
vn -0.8914 0.4480 -0.0692
vn -0.8845 0.4545 -0.1048
vn -0.8253 -0.5449 -0.1480
vn -0.8225 -0.5633 -0.0783
vn -0.1565 -0.9597 -0.2334
vn -0.1857 -0.9272 -0.3251
vn -0.2091 -0.9502 -0.2309
vn -0.8540 0.5198 0.0215
vn -0.8016 -0.5978 0.0057
vn -0.8750 0.4816 -0.0478
vn 0.1364 -0.9570 -0.2559
vn -0.2300 0.9694 -0.0855
vn -0.2615 0.9410 -0.2146
vn 0.1543 -0.9262 -0.3440
vn 0.8907 0.4197 0.1743
vn 0.8802 0.4480 -0.1565
vn 0.3074 0.9203 -0.2416
vn 0.3623 0.9285 0.0809
vn 0.1812 0.8279 0.5307
vn 0.5195 0.3556 0.7769
vn 0.1854 -0.9502 -0.2504
vn -0.3002 0.9051 -0.3012
vn 0.2708 0.9035 -0.3321
vn -0.3297 0.9203 -0.2102
vn -0.1281 0.8279 0.5460
vn -0.4405 0.3556 0.8242
vn 0.8692 0.4519 -0.2004
vn 0.2300 -0.9729 0.0225
vn -0.2267 -0.9729 0.0450
vn -0.0732 -0.9217 0.3809
vn 0.1104 -0.9217 0.3718
vn -0.3526 0.9285 0.1162
vn -0.4172 -0.4587 0.7846
vn -0.8693 0.4197 0.2611
vn -0.8176 -0.5268 0.2324
vn 0.1591 0.2439 -0.9566
vn 0.1507 -0.3705 -0.9165
vn -0.1647 -0.3839 -0.9086
vn -0.7265 -0.4985 -0.4730
vn -0.1418 -0.9303 -0.3383
vn -0.7881 -0.6146 0.0328
vn 0.0120 -0.7292 -0.6841
vn -0.0150 -0.7304 -0.6828
vn 0.4923 -0.4587 0.7397
vn 0.7835 -0.6104 -0.1156
vn 0.7953 -0.5902 -0.1382
vn 0.8093 -0.5539 -0.1956
vn 0.8365 -0.5268 0.1508
vn 0.8093 -0.5575 -0.1849
vn 0.8066 -0.5417 -0.2365
vn 0.2069 0.8604 -0.4657
vn 0.0216 0.5949 -0.8035
vn 0.6716 -0.5000 -0.5466
vn 0.1311 -0.9210 -0.3667
vn 0.7056 0.4363 -0.5583
usemtl None
s 1
f 8/1/1 6/2/2 5/3/3 7/4/4
f 10/5/5 12/6/1 8/7/1 4/8/6
f 12/9/1 16/10/7 15/11/8 11/12/9
f 14/13/10 13/14/11 15/15/8 16/16/7
f 9/17/12 11/18/9 15/19/8 13/20/11
f 3/21/13 4/8/6 8/7/1 7/22/4
f 2/23/14 4/24/6 3/25/13 1/26/15
f 7/22/4 5/27/3 1/28/15 3/21/13
f 12/9/1 11/12/9 6/2/2 8/1/1
f 10/5/5 14/29/10 16/30/7 12/6/1
f 2/31/14 1/32/15 5/33/3 6/34/2
f 9/17/12 2/31/14 6/34/2 11/18/9
f 9/35/12 10/36/5 4/24/6 2/23/14
f 10/36/5 9/35/12 13/37/11 14/38/10
f 17/39/16 68/40/17 86/41/18 35/42/19
f 17/43/16 35/44/19 72/45/20 53/46/21
f 87/47/22 63/48/23 33/49/24 85/50/25
f 18/51/26 67/52/27 88/53/28 39/54/29
f 18/51/26 39/54/29 74/55/30 55/56/31
f 59/57/32 41/58/33 24/59/34 19/60/35
f 19/61/35 58/62/36 69/63/37 43/64/38
f 19/61/35 43/64/38 77/65/39 59/66/32
f 32/67/40 30/68/41 58/69/36 34/70/42
f 69/63/37 33/49/24 63/48/23 73/71/43
f 86/41/18 62/72/44 39/54/29 88/53/28
f 74/55/30 39/54/29 62/72/44 70/73/45
f 69/63/37 73/71/43 45/74/46 43/64/38
f 20/75/47 56/76/48 79/77/49 49/78/50
f 20/75/47 49/78/50 83/79/51 57/80/52
f 77/65/39 43/64/38 45/74/46 80/81/53
f 74/55/30 70/73/45 44/82/54 46/83/55
f 79/77/49 46/83/55 44/82/54 78/84/56
f 83/85/51 82/86/57 47/87/58 57/88/52
f 21/89/59 55/56/31 74/55/30 46/83/55
f 21/89/59 46/83/55 79/77/49 56/76/48
f 77/65/39 80/81/53 50/90/60 51/91/61
f 81/92/62 51/91/61 50/90/60 84/93/63
f 79/77/49 78/84/56 52/94/64 49/78/50
f 60/95/65 47/96/58 23/97/66 22/98/67
f 22/99/67 59/66/32 77/65/39 51/91/61
f 22/99/67 51/91/61 81/92/62 60/100/65
f 19/60/35 24/59/34 34/70/42 58/69/36
f 83/79/51 49/78/50 52/94/64 82/101/57
f 53/46/21 54/102/68 37/103/69 36/104/70
f 23/105/66 52/94/64 78/84/56 41/106/33
f 23/105/66 47/107/58 82/101/57 52/94/64
f 24/108/34 44/82/54 70/73/45 34/109/42
f 24/108/34 41/106/33 78/84/56 44/82/54
f 25/110/71 61/111/72 85/50/25 66/112/73
f 17/43/16 53/46/21 36/104/70 25/113/71
f 36/104/70 37/103/69 75/114/74 71/115/75
f 25/110/71 36/116/70 71/117/75 61/111/72
f 57/88/52 47/87/58 60/118/65 48/119/76
f 65/120/77 67/121/27 18/122/26 26/123/78
f 26/124/78 63/48/23 87/47/22 65/125/77
f 18/122/26 55/126/31 40/127/79 26/123/78
f 56/128/48 20/129/47 27/130/80 42/131/81
f 26/124/78 40/132/79 73/71/43 63/48/23
f 27/133/80 50/90/60 80/81/53 42/134/81
f 20/129/47 57/135/52 48/136/76 27/130/80
f 55/126/31 21/137/59 28/138/82 40/127/79
f 27/133/80 48/139/76 84/93/63 50/90/60
f 28/140/82 45/74/46 73/71/43 40/132/79
f 21/137/59 56/128/48 42/131/81 28/138/82
f 48/139/76 60/100/65 81/92/62 84/93/63
f 28/140/82 42/134/81 80/81/53 45/74/46
f 72/141/20 35/42/19 64/142/83 76/143/84
f 22/98/67 23/97/66 41/58/33 59/57/32
f 29/144/85 38/145/86 75/146/74 37/147/69
f 31/148/87 67/121/27 65/120/77 29/149/85
f 72/45/20 76/150/84 54/102/68 53/46/21
f 29/144/85 65/125/77 87/47/22 38/145/86
f 30/151/41 33/49/24 69/63/37 58/62/36
f 32/67/40 68/152/17 66/153/73 30/68/41
f 31/154/87 29/155/85 37/103/69 54/102/68
f 30/151/41 66/112/73 85/50/25 33/49/24
f 66/153/73 68/152/17 17/156/16 25/157/71
f 86/41/18 88/53/28 64/142/83 35/42/19
f 75/146/74 38/145/86 61/111/72 71/117/75
f 87/47/22 85/50/25 61/111/72 38/145/86
f 31/154/87 54/102/68 76/150/84 64/158/83
f 31/159/87 64/142/83 88/53/28 67/52/27
f 32/160/40 34/109/42 70/73/45 62/72/44
f 32/160/40 62/72/44 86/41/18 68/40/17
